<svg xmlns="http://www.w3.org/2000/svg" viewBox="0 0 806 598">
  <defs>
    <linearGradient id="shellFade" x1="0" y1="0" x2="1" y2="0">
      <stop offset="0%" stop-color="#e986b1"/>
      <stop offset="38%" stop-color="#f6bfd6"/>
      <stop offset="68%" stop-color="#fff0f7"/>
      <stop offset="100%" stop-color="#ffffff"/>
    </linearGradient>
    <filter id="softShadow" x="-20%" y="-20%" width="140%" height="140%">
      <feDropShadow dx="0" dy="14" stdDeviation="12" flood-color="#b85f87" flood-opacity=".24"/>
    </filter>
    <g id="petal">
      <path d="M0,-12 C8,-11 13,-4 10,4 C7,13 -3,18 -8,9 C-13,0 -8,-10 0,-12Z" fill="#f59bbb" opacity=".94"/>
      <path d="M0,-9 C3,-5 3,4 -1,10" stroke="#ca5f8d" stroke-width="1" opacity=".32" fill="none"/>
    </g>
    <g id="blossom">
      <use href="#petal" transform="rotate(0) translate(0,-10) scale(.62)"/>
      <use href="#petal" transform="rotate(72) translate(0,-10) scale(.62)"/>
      <use href="#petal" transform="rotate(144) translate(0,-10) scale(.62)"/>
      <use href="#petal" transform="rotate(216) translate(0,-10) scale(.62)"/>
      <use href="#petal" transform="rotate(288) translate(0,-10) scale(.62)"/>
      <circle r="3.2" fill="#bd4f80"/>
      <circle r="1.3" fill="#ffd9e8"/>
    </g>
    <g id="smallBlossom"><use href="#blossom" transform="scale(.62)"/></g>
  </defs>

  <path filter="url(#softShadow)"
        d="M115 109 C76 113 54 151 50 205 L26 411 C16 497 59 555 131 548 C180 543 194 499 211 451 C222 419 240 400 278 404 L528 404 C566 400 584 419 595 451 C612 499 626 543 675 548 C747 555 790 497 780 411 L756 205 C752 151 730 113 691 109 C631 102 584 129 555 173 C537 199 508 211 468 211 L338 211 C298 211 269 199 251 173 C222 129 175 102 115 109Z"
        fill="url(#shellFade)" stroke="#ffffff" stroke-width="5"/>

  <path d="M76 193 C129 151 203 161 250 209 C282 241 322 251 403 250 C484 251 524 241 556 209 C603 161 677 151 730 193"
        fill="none" stroke="#d577a3" stroke-width="18" stroke-linecap="round" opacity=".12"/>
  <rect x="290" y="186" width="226" height="102" rx="15" fill="#fff8fb" opacity=".40"/>
  <rect x="306" y="290" width="194" height="34" rx="17" fill="#eaa3c0" opacity=".20"/>

  <path d="M92 176 C130 150 164 143 203 152 C224 157 238 167 252 184"
        fill="none" stroke="#5b3a39" stroke-width="7" stroke-linecap="round" opacity=".46"/>
  <path d="M100 176 C84 166 78 153 72 140" fill="none" stroke="#5b3a39" stroke-width="4" stroke-linecap="round" opacity=".42"/>
  <path d="M170 150 C181 135 192 125 207 116" fill="none" stroke="#5b3a39" stroke-width="4" stroke-linecap="round" opacity=".42"/>

  <path d="M568 427 C606 455 642 464 690 451 C716 444 735 429 748 410"
        fill="none" stroke="#5b3a39" stroke-width="7" stroke-linecap="round" opacity=".42"/>
  <path d="M629 459 C617 475 604 486 588 492" fill="none" stroke="#5b3a39" stroke-width="4" stroke-linecap="round" opacity=".38"/>
  <path d="M705 446 C724 458 735 471 744 489" fill="none" stroke="#5b3a39" stroke-width="4" stroke-linecap="round" opacity=".38"/>

  <use href="#blossom" x="102" y="173" transform="rotate(-18 102 173) scale(1.05)"/>
  <use href="#smallBlossom" x="142" y="154" transform="rotate(12 142 154) scale(1.05)"/>
  <use href="#smallBlossom" x="196" y="151" transform="rotate(-28 196 151) scale(.9)"/>
  <use href="#smallBlossom" x="236" y="181" transform="rotate(20 236 181) scale(.72)"/>
  <use href="#blossom" x="602" y="444" transform="rotate(16 602 444) scale(.95)"/>
  <use href="#smallBlossom" x="648" y="458" transform="rotate(-12 648 458) scale(1.0)"/>
  <use href="#smallBlossom" x="704" y="438" transform="rotate(24 704 438) scale(.84)"/>

  <use href="#petal" x="410" y="154" transform="rotate(35 410 154) scale(.72)"/>
  <use href="#petal" x="535" y="170" transform="rotate(-18 535 170) scale(.52)"/>
  <use href="#petal" x="252" y="410" transform="rotate(74 252 410) scale(.48)"/>
  <use href="#petal" x="548" y="367" transform="rotate(-42 548 367) scale(.52)"/>
</svg>
