<svg xmlns="http://www.w3.org/2000/svg" viewBox="0 0 806 598">
  <defs>
    <g id="petal">
      <path d="M0,-10 C7,-10 11,-3 8,4 C5,11 -3,15 -8,7 C-12,0 -7,-9 0,-10Z" fill="#e86f9f" opacity=".78"/>
      <path d="M0,-7 C3,-3 2,4 -1,9" stroke="#b74a78" stroke-width="1" opacity=".25" fill="none"/>
    </g>
  </defs>
  <use href="#petal" x="120" y="40" transform="rotate(28 120 40) scale(.55)"/>
  <use href="#petal" x="210" y="20" transform="rotate(-22 210 20) scale(.38)"/>
  <use href="#petal" x="315" y="56" transform="rotate(54 315 56) scale(.45)"/>
  <use href="#petal" x="438" y="30" transform="rotate(-18 438 30) scale(.42)"/>
  <use href="#petal" x="548" y="78" transform="rotate(35 548 78) scale(.50)"/>
  <use href="#petal" x="650" y="36" transform="rotate(-8 650 36) scale(.38)"/>
  <use href="#petal" x="720" y="92" transform="rotate(18 720 92) scale(.43)"/>
</svg>
