<svg xmlns="http://www.w3.org/2000/svg" viewBox="0 0 320 145">
  <defs>
    <linearGradient id="sky" x1="0" y1="0" x2="0" y2="1">
      <stop offset="0%" stop-color="#ffd4e4"/>
      <stop offset="48%" stop-color="#fff0d8"/>
      <stop offset="100%" stop-color="#e6f0fb"/>
    </linearGradient>

    <linearGradient id="mount" x1="0" y1="0" x2="1" y2="1">
      <stop offset="0%" stop-color="#91aac8"/>
      <stop offset="100%" stop-color="#516b90"/>
    </linearGradient>

    <g id="petal">
      <path d="M0,-8 C6,-8 9,-2 7,3 C5,9 -3,12 -7,6 C-10,0 -6,-7 0,-8Z" fill="#f6a6c2"/>
    </g>

    <g id="flower">
      <use href="#petal" transform="rotate(0) translate(0,-6) scale(.45)"/>
      <use href="#petal" transform="rotate(72) translate(0,-6) scale(.45)"/>
      <use href="#petal" transform="rotate(144) translate(0,-6) scale(.45)"/>
      <use href="#petal" transform="rotate(216) translate(0,-6) scale(.45)"/>
      <use href="#petal" transform="rotate(288) translate(0,-6) scale(.45)"/>
      <circle r="1.7" fill="#b94373"/>
    </g>
  </defs>

  <rect width="320" height="145" rx="18" fill="url(#sky)"/>

  <circle cx="160" cy="34" r="18" fill="#fff8ee" opacity=".95"/>
  <path d="M0 94 C48 70 82 75 114 58 C143 43 169 52 197 71 C232 94 271 74 320 89 L320 145 L0 145Z" fill="#d9e9f5"/>
  <path d="M48 105 L116 45 L168 107Z" fill="url(#mount)" opacity=".82"/>
  <path d="M114 45 L133 65 L101 69Z" fill="#f6fbff" opacity=".9"/>
  <path d="M123 110 L205 55 L276 113Z" fill="#7894b6" opacity=".78"/>
  <path d="M205 55 L222 76 L190 78Z" fill="#f7fbff" opacity=".9"/>

  <path d="M0 120 C56 98 104 105 151 118 C207 133 256 110 320 119 L320 145 L0 145Z" fill="#f8f0f6" opacity=".75"/>

  <path d="M19 119 C52 68 79 37 122 18" stroke="#4b2f37" stroke-width="5" stroke-linecap="round" fill="none" opacity=".58"/>
  <path d="M64 60 C88 52 111 54 137 66" stroke="#4b2f37" stroke-width="3" stroke-linecap="round" fill="none" opacity=".45"/>

  <path d="M296 118 C264 70 240 42 199 22" stroke="#4b2f37" stroke-width="5" stroke-linecap="round" fill="none" opacity=".55"/>
  <path d="M254 62 C230 55 206 58 184 70" stroke="#4b2f37" stroke-width="3" stroke-linecap="round" fill="none" opacity=".42"/>

  <use href="#flower" x="38" y="98" transform="scale(1.2)"/>
  <use href="#flower" x="74" y="63" transform="scale(.9)"/>
  <use href="#flower" x="104" y="42" transform="scale(.7)"/>
  <use href="#flower" x="276" y="101" transform="scale(1.15)"/>
  <use href="#flower" x="238" y="66" transform="scale(.82)"/>
  <use href="#flower" x="208" y="43" transform="scale(.7)"/>

  <rect width="320" height="145" rx="18" fill="none" stroke="#3f2d38" stroke-width="5" opacity=".65"/>
</svg>
